<svg width="34" height="39" viewBox="0 0 34 39" fill="none" xmlns="http://www.w3.org/2000/svg">
<path d="M1 22.5542V28.7126L6.33332 31.7918V25.6334L1 22.5542Z" fill="#FEB2B2" stroke="#1A202C" stroke-width="0.75" stroke-miterlimit="3" stroke-linecap="round" stroke-linejoin="round"/>
<path d="M6.33301 25.6335L11.6663 28.7127V34.8711L6.33301 31.7919V25.6335Z" fill="#FEB2B2" stroke="#1A202C" stroke-width="0.75" stroke-miterlimit="3" stroke-linecap="round" stroke-linejoin="round"/>
<path d="M11.667 34.871L17.0003 37.9502V31.7918L11.667 28.7126V34.871Z" fill="#FEB2B2" stroke="#1A202C" stroke-width="0.75" stroke-miterlimit="3" stroke-linecap="round" stroke-linejoin="round"/>
<path d="M1 16.396V22.5544L6.33332 25.6336V19.4752L1 16.396Z" fill="#FEB2B2" stroke="#1A202C" stroke-width="0.75" stroke-miterlimit="3" stroke-linecap="round" stroke-linejoin="round"/>
<path d="M6.33301 19.4751L11.6663 22.5543V28.7127L6.33301 25.6335V19.4751Z" fill="#FEB2B2" stroke="#1A202C" stroke-width="0.75" stroke-miterlimit="3" stroke-linecap="round" stroke-linejoin="round"/>
<path d="M11.667 28.7126L17.0003 31.7918V25.6334L11.667 22.5542V28.7126Z" fill="#FEB2B2" stroke="#1A202C" stroke-width="0.75" stroke-miterlimit="3" stroke-linecap="round" stroke-linejoin="round"/>
<path d="M1 10.2378V16.3962L6.33332 19.4754V13.317L1 10.2378Z" fill="#FEB2B2" stroke="#1A202C" stroke-width="0.75" stroke-miterlimit="3" stroke-linecap="round" stroke-linejoin="round"/>
<path d="M6.33301 13.3169L11.6663 16.3961V22.5545L6.33301 19.4753V13.3169Z" fill="#FEB2B2" stroke="#1A202C" stroke-width="0.75" stroke-miterlimit="3" stroke-linecap="round" stroke-linejoin="round"/>
<path d="M11.667 22.5544L17.0003 25.6336V19.4752L11.667 16.396V22.5544Z" fill="#FEB2B2" stroke="#1A202C" stroke-width="0.75" stroke-miterlimit="3" stroke-linecap="round" stroke-linejoin="round"/>
<path d="M17 37.9502L22.3333 34.871V28.7126L17 31.7918V37.9502Z" fill="#9AE6B4" stroke="#1A202C" stroke-width="0.75" stroke-miterlimit="3" stroke-linecap="round" stroke-linejoin="round"/>
<path d="M22.333 34.8711L27.6663 31.7919V25.6335L22.333 28.7127V34.8711Z" fill="#9AE6B4" stroke="#1A202C" stroke-width="0.75" stroke-miterlimit="3" stroke-linecap="round" stroke-linejoin="round"/>
<path d="M27.667 25.6334L33.0003 22.5542V28.7126L27.667 31.7918V25.6334Z" fill="#9AE6B4" stroke="#1A202C" stroke-width="0.75" stroke-miterlimit="3" stroke-linecap="round" stroke-linejoin="round"/>
<path d="M17 31.7918L22.3333 28.7126V22.5542L17 25.6334V31.7918Z" fill="#9AE6B4" stroke="#1A202C" stroke-width="0.75" stroke-miterlimit="3" stroke-linecap="round" stroke-linejoin="round"/>
<path d="M22.333 28.7127L27.6663 25.6335V19.4751L22.333 22.5543V28.7127Z" fill="#9AE6B4" stroke="#1A202C" stroke-width="0.75" stroke-miterlimit="3" stroke-linecap="round" stroke-linejoin="round"/>
<path d="M27.667 19.4752L33.0003 16.396V22.5544L27.667 25.6336V19.4752Z" fill="#9AE6B4" stroke="#1A202C" stroke-width="0.75" stroke-miterlimit="3" stroke-linecap="round" stroke-linejoin="round"/>
<path d="M17 25.6336L22.3333 22.5544V16.396L17 19.4752V25.6336Z" fill="#9AE6B4" stroke="#1A202C" stroke-width="0.75" stroke-miterlimit="3" stroke-linecap="round" stroke-linejoin="round"/>
<path d="M22.333 22.5545L27.6663 19.4753V13.3169L22.333 16.3961V22.5545Z" fill="#9AE6B4" stroke="#1A202C" stroke-width="0.75" stroke-miterlimit="3" stroke-linecap="round" stroke-linejoin="round"/>
<path d="M27.667 13.317L33.0003 10.2378V16.3962L27.667 19.4754V13.317Z" fill="#9AE6B4" stroke="#1A202C" stroke-width="0.75" stroke-miterlimit="3" stroke-linecap="round" stroke-linejoin="round"/>
<path d="M11.667 16.3961L17.0003 13.3169L22.3336 16.3961L17.0003 19.4753L11.667 16.3961Z" fill="#90CDF4" stroke="#1A202C" stroke-width="0.75" stroke-miterlimit="3" stroke-linecap="round" stroke-linejoin="round"/>
<path d="M6.33301 13.317L11.6663 10.2378L16.9997 13.317L11.6663 16.3962L6.33301 13.317Z" fill="#90CDF4" stroke="#1A202C" stroke-width="0.75" stroke-miterlimit="3" stroke-linecap="round" stroke-linejoin="round"/>
<path d="M1 10.2376L6.33332 7.15845L11.6666 10.2376L6.33332 13.3168L1 10.2376Z" fill="#90CDF4" stroke="#1A202C" stroke-width="0.75" stroke-miterlimit="3" stroke-linecap="round" stroke-linejoin="round"/>
<path d="M17 13.317L22.3333 10.2378L27.6666 13.317L22.3333 16.3962L17 13.317Z" fill="#90CDF4" stroke="#1A202C" stroke-width="0.75" stroke-miterlimit="3" stroke-linecap="round" stroke-linejoin="round"/>
<path d="M11.667 10.2376L17.0003 7.15845L22.3336 10.2376L17.0003 13.3168L11.667 10.2376Z" fill="#90CDF4" stroke="#1A202C" stroke-width="0.75" stroke-miterlimit="3" stroke-linecap="round" stroke-linejoin="round"/>
<path d="M6.33301 7.15854L11.6663 4.07935L16.9997 7.15854L11.6663 10.2377L6.33301 7.15854Z" fill="#90CDF4" stroke="#1A202C" stroke-width="0.75" stroke-miterlimit="3" stroke-linecap="round" stroke-linejoin="round"/>
<path d="M22.333 10.2376L27.6663 7.15845L32.9997 10.2376L27.6663 13.3168L22.333 10.2376Z" fill="#90CDF4" stroke="#1A202C" stroke-width="0.75" stroke-miterlimit="3" stroke-linecap="round" stroke-linejoin="round"/>
<path d="M17 7.15854L22.3333 4.07935L27.6666 7.15854L22.3333 10.2377L17 7.15854Z" fill="#90CDF4" stroke="#1A202C" stroke-width="0.75" stroke-miterlimit="3" stroke-linecap="round" stroke-linejoin="round"/>
<path d="M11.667 4.07919L17.0003 1L22.3336 4.07919L17.0003 7.15839L11.667 4.07919Z" fill="#90CDF4" stroke="#1A202C" stroke-width="0.75" stroke-miterlimit="3" stroke-linecap="round" stroke-linejoin="round"/>
<g style="mix-blend-mode:darken">
<path d="M17 37.9505L33 28.713V10.2378L17 19.4754V37.9505Z" fill="black" fill-opacity="0.25"/>
</g>
</svg>
